<svg width="29" height="33" viewBox="0 0 29 33" fill="none" xmlns="http://www.w3.org/2000/svg">
<path d="M2.12128 10.689C1.53075 10.689 1.02971 10.8872 0.617854 11.2838C0.205993 11.6804 0 12.1562 0 12.7116V21.2391C0 21.8084 0.205931 22.2904 0.617854 22.687C1.02971 23.0836 1.53075 23.2819 2.12128 23.2819C2.71137 23.2819 3.20937 23.0837 3.61485 22.687C4.01952 22.2905 4.22241 21.8084 4.22241 21.2391V12.7116C4.22241 12.1562 4.01648 11.6804 3.60456 11.2838C3.19264 10.8872 2.69811 10.689 2.12128 10.689Z" fill="white"/>
<path d="M19.1756 3.03396L20.638 0.436463C20.734 0.264498 20.6999 0.13263 20.5353 0.0399051C20.3566 -0.0400509 20.2193 0.000464099 20.1234 0.158586L18.6406 2.77685C17.3358 2.22139 15.9557 1.94316 14.5005 1.94316C13.0449 1.94316 11.6647 2.22145 10.3604 2.77685L8.87752 0.158586C8.78115 0.000464099 8.64389 -0.0396929 8.46566 0.0399051C8.30069 0.133048 8.26655 0.264498 8.36291 0.436463L9.82537 3.03396C8.34246 3.7621 7.16142 4.77617 6.28267 6.07838C5.40392 7.3813 4.96436 8.80512 4.96436 10.3523H24.0159C24.0159 8.80548 23.5762 7.3816 22.6976 6.07838C21.8187 4.77617 20.6445 3.7621 19.1756 3.03396ZM10.7207 6.81206C10.5626 6.9647 10.3737 7.04066 10.1541 7.04066C9.93412 7.04066 9.74908 6.9647 9.59812 6.81206C9.44716 6.66015 9.37168 6.47899 9.37168 6.26687C9.37168 6.05547 9.44716 5.87395 9.59812 5.72168C9.74908 5.56976 9.93456 5.4938 10.1541 5.4938C10.3737 5.4938 10.5626 5.56976 10.7207 5.72168C10.8785 5.87431 10.9578 6.05547 10.9578 6.26687C10.9573 6.47864 10.8781 6.66015 10.7207 6.81206ZM19.402 6.81206C19.2507 6.9647 19.0652 7.04066 18.8461 7.04066C18.626 7.04066 18.4372 6.9647 18.2793 6.81206C18.1212 6.66015 18.0424 6.47899 18.0424 6.26687C18.0424 6.05547 18.1212 5.87395 18.2793 5.72168C18.4372 5.56976 18.626 5.4938 18.8461 5.4938C19.0656 5.4938 19.2507 5.56976 19.402 5.72168C19.5531 5.87431 19.6284 6.05547 19.6284 6.26687C19.6284 6.47864 19.553 6.66015 19.402 6.81206Z" fill="white"/>
<path d="M5.04614 24.2735C5.04614 24.8823 5.26571 25.3976 5.7049 25.8205C6.14446 26.2433 6.67964 26.4548 7.31143 26.4548H8.83568L8.85656 30.9571C8.85656 31.5256 9.06249 32.0084 9.47435 32.405C9.88621 32.8016 10.3808 32.9999 10.9573 32.9999C11.5474 32.9999 12.0488 32.8016 12.4607 32.405C12.8726 32.0084 13.0785 31.5257 13.0785 30.9571V26.4552H15.9208V30.9571C15.9208 31.5256 16.1266 32.0084 16.5386 32.405C16.9505 32.8016 17.4514 32.9999 18.042 32.9999C18.6321 32.9999 19.1335 32.8016 19.5454 32.405C19.9573 32.0084 20.1632 31.5257 20.1632 30.9571V26.4552H21.708C22.3258 26.4552 22.8541 26.2437 23.2941 25.8208C23.7332 25.3979 23.9529 24.8826 23.9529 24.2739V11.0654H5.04614V24.2735Z" fill="white"/>
<path d="M26.8787 10.689C26.3018 10.689 25.8077 10.8843 25.3957 11.274C24.9839 11.6643 24.778 12.1438 24.778 12.7116V21.2391C24.778 21.8084 24.9838 22.2904 25.3957 22.687C25.8077 23.0837 26.3022 23.2819 26.8787 23.2819C27.4689 23.2819 27.9702 23.0837 28.3821 22.687C28.7941 22.2904 28.9999 21.8084 28.9999 21.2391V12.7116C28.9999 12.1437 28.7941 11.6643 28.3821 11.274C27.9702 10.8843 27.4689 10.689 26.8787 10.689Z" fill="white"/>
</svg>
