<svg width="221" height="221" viewBox="0 0 221 221" fill="none" xmlns="http://www.w3.org/2000/svg">
<path d="M105.785 200.318C108.493 201.764 111.89 201.755 114.598 200.309C188.375 160.676 193.614 83.2433 193.55 61.2262C193.543 59.4566 193.02 57.7275 192.045 56.2506C191.07 54.7737 189.686 53.6132 188.062 52.9111L113.935 20.0742C112.755 19.5542 111.48 19.2864 110.191 19.288C108.901 19.2896 107.627 19.5605 106.448 20.0834L32.8369 52.9203C31.2365 53.6228 29.8717 54.7705 28.9052 56.2268C27.9387 57.6831 27.4112 59.3865 27.3856 61.1341C27.0725 83.0408 31.4833 160.639 105.785 200.318ZM79.8731 94.7814L100.988 115.896L140.519 76.3647L153.54 89.3853L100.988 141.937L66.8525 107.802L79.8731 94.7814Z" fill="#232C33"/>
</svg>
