<svg width="237" height="237" viewBox="0 0 237 237" fill="none" xmlns="http://www.w3.org/2000/svg">
<path d="M45.82 150.791V198.389C45.846 200.781 46.8146 203.067 48.5156 204.749C50.2166 206.432 52.5125 207.375 54.905 207.375H110.403V150.791H45.82ZM126.597 207.375H182.095C184.487 207.375 186.783 206.432 188.484 204.749C190.185 203.067 191.154 200.781 191.18 198.389V150.791H126.597V207.375ZM198.488 70.0138H180.318C182.179 66.2338 183.158 62.0808 183.181 57.8675C183.155 50.3681 180.158 43.1847 174.845 37.891C169.533 32.5973 162.339 29.625 154.84 29.625C147.006 29.9965 139.436 32.5767 133.006 37.0674C126.575 41.5582 121.547 47.7764 118.5 55.0038C115.453 47.7764 110.425 41.5582 103.994 37.0674C97.5639 32.5767 89.9944 29.9965 82.16 29.625C74.6605 29.625 67.4667 32.5973 62.1545 37.891C56.8424 43.1847 53.8449 50.3681 53.8187 57.8675C53.8422 62.0808 54.8213 66.2338 56.6825 70.0138H38.5125C33.575 70.0138 29.625 75.84 29.625 82.95V121.759C29.625 128.869 33.575 134.695 38.5125 134.695H110.403V70.0138H126.597V134.695H198.488C203.425 134.695 207.375 128.869 207.375 121.759V82.95C207.375 75.84 203.425 70.0138 198.488 70.0138ZM82.16 70.0138C80.4796 70.1657 78.7859 69.9659 77.1869 69.4271C75.588 68.8882 74.1188 68.0221 72.8732 66.884C71.6275 65.7459 70.6326 64.3608 69.9519 62.8169C69.2712 61.273 68.9197 59.6042 68.9197 57.9169C68.9197 56.2296 69.2712 54.5608 69.9519 53.0169C70.6326 51.473 71.6275 50.0878 72.8732 48.9497C74.1188 47.8116 75.588 46.9455 77.1869 46.4067C78.7859 45.8678 80.4796 45.668 82.16 45.82C95.985 45.82 103.786 60.04 107.637 70.0138H82.16ZM154.84 70.0138H129.363C133.214 60.1388 141.015 45.82 154.84 45.82C156.52 45.668 158.214 45.8678 159.813 46.4067C161.412 46.9455 162.881 47.8116 164.127 48.9497C165.373 50.0878 166.367 51.473 167.048 53.0169C167.729 54.5608 168.08 56.2296 168.08 57.9169C168.08 59.6042 167.729 61.273 167.048 62.8169C166.367 64.3608 165.373 65.7459 164.127 66.884C162.881 68.0221 161.412 68.8882 159.813 69.4271C158.214 69.9659 156.52 70.1657 154.84 70.0138Z" fill="#232C33"/>
</svg>
