<svg width="233" height="233" viewBox="0 0 233 233" fill="none" xmlns="http://www.w3.org/2000/svg">
<path d="M43.6875 203.875C43.6875 203.875 29.125 203.875 29.125 189.312C29.125 174.75 43.6875 131.062 116.5 131.062C189.312 131.062 203.875 174.75 203.875 189.312C203.875 203.875 189.312 203.875 189.312 203.875H43.6875ZM116.5 116.5C128.087 116.5 139.199 111.897 147.392 103.704C155.585 95.5112 160.188 84.3991 160.188 72.8125C160.188 61.2259 155.585 50.1138 147.392 41.9208C139.199 33.7278 128.087 29.125 116.5 29.125C104.913 29.125 93.8013 33.7278 85.6083 41.9208C77.4153 50.1138 72.8125 61.2259 72.8125 72.8125C72.8125 84.3991 77.4153 95.5112 85.6083 103.704C93.8013 111.897 104.913 116.5 116.5 116.5Z" fill="#232C33"/>
</svg>
